<?xml version="1.0" encoding="UTF-8" standalone="no"?><!DOCTYPE svg PUBLIC "-//W3C//DTD SVG 1.1//EN" "http://www.w3.org/Graphics/SVG/1.1/DTD/svg11.dtd"><svg width="100%" height="100%" viewBox="0 0 64 64" version="1.1" xmlns="http://www.w3.org/2000/svg" xmlns:xlink="http://www.w3.org/1999/xlink" xml:space="preserve" xmlns:serif="http://www.serif.com/" style="fill-rule:evenodd;clip-rule:evenodd;stroke-linecap:round;stroke-linejoin:round;stroke-miterlimit:1.5;"><path d="M2,22l3.839,-19.196c0.094,-0.468 0.504,-0.804 0.981,-0.804l50.36,0c0.477,-0 0.887,0.336 0.981,0.804l3.839,19.196l0,39c0,0.265 -0.105,0.52 -0.293,0.707c-0.187,0.188 -0.442,0.293 -0.707,0.293l-58,0c-0.265,0 -0.52,-0.105 -0.707,-0.293c-0.188,-0.187 -0.293,-0.442 -0.293,-0.707l0,-39Z" style="fill:url(#_Linear1);"/><g transform="matrix(10.4167,0,0,10.4167,50.3385,56.3542)"></g><text x="13.068px" y="56.354px" style="font-family:'Poppins-Regular', 'Poppins';font-size:10.417px;fill:#ae8045;">PARCEL</text><path d="M31.5,33.866l-11.23,10.268l22.46,-0l-11.23,-10.268Z" style="fill:#6f9e50;stroke:#6f9e50;stroke-width:1px;"/><path d="M26,22l2,-20l7.482,-0l1.518,20l0,15l-5.5,-5l-5.5,5l0,-15Z" style="fill:#b8aea1;"/><defs><linearGradient id="_Linear1" x1="0" y1="0" x2="1" y2="0" gradientUnits="userSpaceOnUse" gradientTransform="matrix(-0.5,-58,58,-0.5,32,60)"><stop offset="0" style="stop-color:#926429;stop-opacity:1"/><stop offset="0.65" style="stop-color:#bf8c4a;stop-opacity:1"/><stop offset="0.66" style="stop-color:#c49557;stop-opacity:1"/><stop offset="1" style="stop-color:#c59558;stop-opacity:1"/></linearGradient></defs></svg>