<?xml version="1.0" encoding="UTF-8" standalone="no"?>
<!DOCTYPE svg PUBLIC "-//W3C//DTD SVG 1.1//EN" "http://www.w3.org/Graphics/SVG/1.1/DTD/svg11.dtd">
<svg width="100%" height="100%" viewBox="0 0 512 512" version="1.1" xmlns="http://www.w3.org/2000/svg" xmlns:xlink="http://www.w3.org/1999/xlink" xml:space="preserve" xmlns:serif="http://www.serif.com/" style="fill-rule:evenodd;clip-rule:evenodd;stroke-linejoin:round;stroke-miterlimit:2;">
    <rect id="Enabled" x="0" y="0" width="512" height="512" style="fill:none;"/>
    <g id="Enabled1" serif:id="Enabled">
        <g>
            <g id="Icon">
                <g id="Crescent" transform="matrix(1.313198,1.313198,-1.313198,1.313198,271.386906,-419.355404)">
                    <path d="M234.194,167.047C233.79,166.786 233.609,166.287 233.753,165.827C233.896,165.367 234.329,165.06 234.81,165.075C287.135,167.077 329,210.188 329,263C329,315.812 287.135,358.923 234.81,360.927C234.328,360.942 233.895,360.634 233.751,360.174C233.607,359.713 233.788,359.213 234.193,358.951C259.752,341.62 280,304.656 280,263C280,221.344 259.752,184.38 234.194,167.047Z" style="fill:white;"/>
                </g>
                <g id="Stars">
                    <g transform="matrix(0.894737,0,0,0.894737,83.105263,30.947368)">
                        <path d="M199.419,108.087C199.549,107.597 199.993,107.255 200.5,107.255C201.007,107.255 201.451,107.597 201.581,108.087C202.535,111.698 203.776,116.393 203.776,116.393C204.091,117.583 204.943,118.558 206.08,119.029C207.217,119.5 208.509,119.413 209.573,118.794C209.573,118.794 213.773,116.35 216.998,114.474C217.437,114.218 217.992,114.291 218.351,114.649C218.709,115.008 218.782,115.563 218.526,116.002C216.648,119.23 214.206,123.427 214.206,123.427C213.587,124.491 213.5,125.783 213.971,126.92C214.442,128.057 215.417,128.909 216.607,129.224C216.607,129.224 221.306,130.466 224.913,131.419C225.403,131.549 225.745,131.993 225.745,132.5C225.745,133.007 225.403,133.451 224.913,133.581C221.306,134.534 216.607,135.776 216.607,135.776C215.417,136.091 214.442,136.943 213.971,138.08C213.5,139.217 213.587,140.509 214.206,141.573C214.206,141.573 216.65,145.773 218.526,148.998C218.782,149.437 218.709,149.992 218.351,150.351C217.992,150.709 217.437,150.782 216.998,150.526C213.773,148.65 209.573,146.206 209.573,146.206C208.509,145.587 207.217,145.5 206.08,145.971C204.943,146.442 204.091,147.417 203.776,148.607C203.776,148.607 202.535,153.302 201.581,156.913C201.451,157.403 201.007,157.745 200.5,157.745C199.993,157.745 199.549,157.403 199.419,156.913C198.465,153.302 197.224,148.607 197.224,148.607C196.909,147.417 196.057,146.442 194.92,145.971C193.783,145.5 192.491,145.587 191.427,146.206C191.427,146.206 187.23,148.648 184.002,150.526C183.563,150.782 183.008,150.709 182.649,150.351C182.291,149.992 182.218,149.437 182.474,148.998C184.35,145.773 186.794,141.573 186.794,141.573C187.413,140.509 187.5,139.217 187.029,138.08C186.558,136.943 185.583,136.091 184.393,135.776C184.393,135.776 179.694,134.534 176.087,133.581C175.597,133.451 175.255,133.007 175.255,132.5C175.255,131.993 175.597,131.549 176.087,131.419C179.698,130.465 184.393,129.224 184.393,129.224C185.583,128.909 186.558,128.057 187.029,126.92C187.5,125.783 187.413,124.491 186.794,123.427C186.794,123.427 184.352,119.23 182.474,116.002C182.218,115.563 182.291,115.008 182.649,114.649C183.008,114.291 183.563,114.218 184.002,114.474C187.227,116.35 191.427,118.794 191.427,118.794C192.491,119.413 193.783,119.5 194.92,119.029C196.057,118.558 196.909,117.583 197.224,116.393C197.224,116.393 198.465,111.698 199.419,108.087Z" style="fill:white;"/>
                    </g>
                    <g transform="matrix(0.631579,0,0,0.631579,154.368421,149.315789)">
                        <path d="M198.969,109.79C199.153,109.096 199.781,108.612 200.5,108.612C201.219,108.612 201.847,109.096 202.031,109.79C202.883,113.014 203.776,116.393 203.776,116.393C204.091,117.583 204.943,118.558 206.08,119.029C207.217,119.5 208.509,119.413 209.573,118.794C209.573,118.794 212.59,117.038 215.476,115.359C216.097,114.998 216.883,115.1 217.392,115.608C217.9,116.117 218.002,116.903 217.641,117.524C215.964,120.407 214.206,123.427 214.206,123.427C213.587,124.491 213.5,125.783 213.971,126.92C214.442,128.057 215.417,128.909 216.607,129.224C216.607,129.224 219.986,130.117 223.21,130.969C223.904,131.153 224.388,131.781 224.388,132.5C224.388,133.219 223.904,133.847 223.21,134.031C219.986,134.883 216.607,135.776 216.607,135.776C215.417,136.091 214.442,136.943 213.971,138.08C213.5,139.217 213.587,140.509 214.206,141.573C214.206,141.573 215.964,144.593 217.641,147.476C218.002,148.097 217.9,148.883 217.392,149.392C216.883,149.9 216.097,150.002 215.476,149.641C212.593,147.964 209.573,146.206 209.573,146.206C208.509,145.587 207.217,145.5 206.08,145.971C204.943,146.442 204.091,147.417 203.776,148.607C203.776,148.607 202.883,151.986 202.031,155.21C201.847,155.904 201.219,156.388 200.5,156.388C199.781,156.388 199.153,155.904 198.969,155.21C198.117,151.986 197.224,148.607 197.224,148.607C196.909,147.417 196.057,146.442 194.92,145.971C193.783,145.5 192.491,145.587 191.427,146.206C191.427,146.206 188.407,147.964 185.524,149.641C184.903,150.002 184.117,149.9 183.608,149.392C183.1,148.883 182.998,148.097 183.359,147.476C185.036,144.593 186.794,141.573 186.794,141.573C187.413,140.509 187.5,139.217 187.029,138.08C186.558,136.943 185.583,136.091 184.393,135.776C184.393,135.776 181.018,134.884 177.79,134.031C177.096,133.847 176.612,133.219 176.612,132.5C176.612,131.781 177.096,131.153 177.79,130.969C181.018,130.116 184.393,129.224 184.393,129.224C185.583,128.909 186.558,128.057 187.029,126.92C187.5,125.783 187.413,124.491 186.794,123.427C186.794,123.427 185.036,120.407 183.359,117.524C182.998,116.903 183.1,116.117 183.608,115.608C184.117,115.1 184.903,114.998 185.524,115.359C188.407,117.036 191.427,118.794 191.427,118.794C192.491,119.413 193.783,119.5 194.92,119.029C196.057,118.558 196.909,117.583 197.224,116.393C197.224,116.393 198.117,113.014 198.969,109.79Z" style="fill:white;"/>
                    </g>
                    <g transform="matrix(0.754386,0,0,0.754386,15.245614,182.54386)">
                        <path d="M199.203,110.172C199.332,109.559 199.873,109.119 200.5,109.119C201.127,109.119 201.668,109.559 201.797,110.172C202.377,112.932 202.932,115.574 202.932,115.574C203.18,116.752 204.039,117.709 205.185,118.081C206.331,118.453 207.588,118.185 208.481,117.376C208.481,117.376 210.486,115.563 212.574,113.674C213.04,113.253 213.736,113.216 214.243,113.585C214.75,113.953 214.93,114.627 214.673,115.199C213.521,117.772 212.417,120.236 212.417,120.236C211.925,121.335 212.058,122.614 212.766,123.589C213.474,124.563 214.649,125.085 215.846,124.956C215.846,124.956 218.534,124.667 221.334,124.367C221.958,124.3 222.543,124.679 222.736,125.275C222.93,125.871 222.68,126.522 222.136,126.834C219.694,128.237 217.35,129.583 217.35,129.583C216.305,130.183 215.661,131.295 215.661,132.5C215.661,133.705 216.305,134.817 217.35,135.417C217.35,135.417 219.694,136.763 222.136,138.166C222.68,138.478 222.93,139.129 222.736,139.725C222.543,140.321 221.958,140.7 221.334,140.633C218.531,140.332 215.846,140.044 215.846,140.044C214.649,139.915 213.474,140.437 212.766,141.411C212.058,142.386 211.925,143.665 212.417,144.764C212.417,144.764 213.522,147.231 214.673,149.801C214.93,150.373 214.75,151.047 214.243,151.415C213.736,151.784 213.04,151.747 212.574,151.326C210.486,149.437 208.481,147.624 208.481,147.624C207.588,146.815 206.331,146.547 205.185,146.919C204.039,147.291 203.18,148.248 202.932,149.426C202.932,149.426 202.377,152.068 201.797,154.828C201.668,155.441 201.127,155.881 200.5,155.881C199.873,155.881 199.332,155.441 199.203,154.828C198.623,152.068 198.068,149.426 198.068,149.426C197.82,148.248 196.961,147.291 195.815,146.919C194.669,146.547 193.412,146.815 192.519,147.623C192.519,147.624 190.514,149.437 188.426,151.326C187.96,151.747 187.264,151.784 186.757,151.415C186.25,151.047 186.07,150.373 186.327,149.801C187.478,147.231 188.583,144.764 188.583,144.764C189.075,143.665 188.942,142.386 188.234,141.411C187.526,140.437 186.351,139.915 185.154,140.044C185.154,140.044 182.469,140.332 179.666,140.633C179.042,140.7 178.457,140.321 178.264,139.725C178.07,139.129 178.32,138.478 178.864,138.166C181.309,136.762 183.65,135.417 183.65,135.417C184.695,134.817 185.339,133.705 185.339,132.5C185.339,131.295 184.695,130.183 183.65,129.583C183.65,129.583 183.65,129.583 183.65,129.583C183.645,129.58 181.306,128.237 178.864,126.834C178.32,126.522 178.07,125.871 178.264,125.275C178.457,124.679 179.042,124.3 179.666,124.367C182.469,124.668 185.154,124.956 185.154,124.956C186.351,125.085 187.526,124.563 188.234,123.589C188.942,122.614 189.075,121.335 188.583,120.236C188.583,120.236 187.478,117.769 186.327,115.199C186.07,114.627 186.25,113.953 186.757,113.585C187.264,113.216 187.96,113.253 188.426,113.674C190.514,115.563 192.519,117.376 192.519,117.377C193.412,118.185 194.669,118.453 195.815,118.081C196.961,117.709 197.82,116.752 198.067,115.574C198.067,115.574 198.624,112.928 199.203,110.172Z" style="fill:white;"/>
                    </g>
                </g>
            </g>
        </g>
    </g>
</svg>
