<?xml version="1.0" encoding="UTF-8" standalone="no"?>
<!DOCTYPE svg PUBLIC "-//W3C//DTD SVG 1.1//EN" "http://www.w3.org/Graphics/SVG/1.1/DTD/svg11.dtd">
<svg width="100%" height="100%" viewBox="0 0 512 512" version="1.1" xmlns="http://www.w3.org/2000/svg" xmlns:xlink="http://www.w3.org/1999/xlink" xml:space="preserve" xmlns:serif="http://www.serif.com/" style="fill-rule:evenodd;clip-rule:evenodd;stroke-linejoin:round;stroke-miterlimit:2;">
    <g transform="matrix(1,0,0,1,-601,0)">
        <g id="Disabled" transform="matrix(1,0,0,1,601,0)">
            <rect x="0" y="0" width="512" height="512" style="fill:none;"/>
            <g>
                <path id="Icon" d="M338.216,375.25C268.803,427.151 170.647,423.056 105.77,362.966C105.117,362.352 104.953,361.379 105.369,360.586C105.785,359.792 106.679,359.373 107.554,359.561C157.429,369.128 222.052,353.011 274.178,311.212L338.216,375.25ZM268.563,231.529L270.827,230.931C271.579,230.732 272.194,230.194 272.492,229.476C272.789,228.758 272.735,227.942 272.344,227.27L270.174,223.542C269.946,223.149 270.011,222.653 270.332,222.332C270.653,222.011 271.149,221.946 271.542,222.174L275.27,224.344C275.942,224.735 276.758,224.789 277.476,224.492C278.194,224.194 278.732,223.579 278.931,222.827L280.033,218.657C280.149,218.218 280.546,217.913 281,217.913C281.454,217.913 281.851,218.218 281.967,218.657L283.069,222.827C283.268,223.579 283.806,224.194 284.524,224.492C285.242,224.789 286.058,224.735 286.73,224.344L290.458,222.174C290.851,221.946 291.347,222.011 291.668,222.332C291.989,222.653 292.054,223.149 291.826,223.542L289.656,227.27C289.265,227.942 289.211,228.758 289.508,229.476C289.806,230.194 290.421,230.732 291.173,230.931L295.343,232.033C295.782,232.149 296.087,232.546 296.087,233C296.087,233.454 295.782,233.851 295.343,233.967L291.173,235.069C290.421,235.268 289.806,235.806 289.508,236.524C289.211,237.242 289.265,238.058 289.656,238.73L291.826,242.458C292.054,242.851 291.989,243.347 291.668,243.668C291.347,243.989 290.851,244.054 290.458,243.826L286.73,241.656C286.058,241.265 285.242,241.211 284.524,241.508C283.806,241.806 283.268,242.421 283.069,243.173L282.471,245.437L268.563,231.529ZM311.212,274.178C353.011,222.052 369.128,157.429 359.565,107.554C359.377,106.679 359.795,105.787 360.587,105.372C361.379,104.957 362.351,105.12 362.963,105.772C423.056,170.647 427.151,268.804 375.25,338.217L311.212,274.178ZM261.533,127.657C261.649,127.218 262.046,126.913 262.5,126.913C262.954,126.913 263.351,127.218 263.467,127.657L265.431,135.089C265.713,136.153 266.475,137.025 267.493,137.447C268.51,137.868 269.666,137.791 270.618,137.237L277.262,133.371C277.654,133.143 278.151,133.207 278.472,133.528C278.793,133.849 278.857,134.346 278.629,134.738L274.763,141.382C274.209,142.334 274.132,143.49 274.553,144.507C274.975,145.525 275.847,146.287 276.911,146.569L284.343,148.533C284.782,148.649 285.087,149.046 285.087,149.5C285.087,149.954 284.782,150.351 284.343,150.467L276.911,152.431C275.847,152.713 274.975,153.475 274.553,154.493C274.132,155.51 274.209,156.666 274.763,157.618L278.629,164.262C278.857,164.654 278.793,165.151 278.472,165.472C278.151,165.793 277.654,165.857 277.262,165.629L270.618,161.763C269.666,161.209 268.51,161.132 267.493,161.553C266.475,161.975 265.713,162.847 265.431,163.911L263.467,171.343C263.351,171.782 262.954,172.087 262.5,172.087C262.046,172.087 261.649,171.782 261.533,171.343L259.569,163.911C259.287,162.847 258.525,161.975 257.507,161.553C256.49,161.132 255.334,161.209 254.382,161.763L247.738,165.629C247.346,165.857 246.849,165.793 246.528,165.472C246.207,165.151 246.143,164.654 246.371,164.262L250.237,157.618C250.791,156.666 250.868,155.51 250.447,154.493C250.025,153.475 249.153,152.713 248.089,152.431L240.657,150.467C240.218,150.351 239.913,149.954 239.913,149.5C239.913,149.046 240.218,148.649 240.657,148.533L248.089,146.569C249.153,146.287 250.025,145.525 250.447,144.507C250.868,143.49 250.791,142.334 250.237,141.382L246.371,134.738C246.143,134.346 246.207,133.849 246.528,133.528C246.849,133.207 247.346,133.143 247.738,133.371L254.382,137.237C255.334,137.791 256.49,137.868 257.507,137.447C258.525,137.025 259.287,136.153 259.569,135.089L261.533,127.657ZM165.521,265.656C165.619,265.193 166.027,264.862 166.5,264.862C166.973,264.862 167.381,265.193 167.479,265.656L168.335,269.731C168.522,270.62 169.17,271.342 170.034,271.623C170.899,271.903 171.847,271.701 172.521,271.091L175.609,268.298C175.96,267.981 176.485,267.952 176.867,268.23C177.25,268.508 177.386,269.017 177.192,269.448L175.49,273.248C175.119,274.078 175.219,275.042 175.753,275.777C176.287,276.512 177.174,276.906 178.077,276.809L182.217,276.364C182.687,276.314 183.129,276.6 183.275,277.05C183.421,277.499 183.232,277.99 182.822,278.226L179.211,280.299C178.423,280.752 177.937,281.591 177.937,282.5C177.937,283.409 178.423,284.248 179.211,284.701L182.822,286.774C183.232,287.01 183.421,287.501 183.275,287.95C183.129,288.4 182.687,288.686 182.217,288.636L178.077,288.191C177.174,288.094 176.287,288.487 175.753,289.223C175.219,289.958 175.119,290.922 175.49,291.752L177.192,295.552C177.386,295.983 177.25,296.492 176.867,296.77C176.485,297.048 175.96,297.019 175.609,296.702L172.521,293.909C171.847,293.299 170.899,293.097 170.034,293.377C169.17,293.658 168.522,294.38 168.335,295.269L167.479,299.344C167.381,299.807 166.973,300.138 166.5,300.138C166.027,300.138 165.619,299.807 165.521,299.344L164.665,295.269C164.478,294.38 163.83,293.658 162.966,293.377C162.101,293.097 161.153,293.299 160.479,293.909L157.391,296.702C157.04,297.019 156.515,297.048 156.133,296.77C155.75,296.492 155.614,295.983 155.808,295.552L157.51,291.752C157.881,290.922 157.781,289.958 157.247,289.223C156.713,288.487 155.826,288.094 154.923,288.191L150.783,288.636C150.313,288.686 149.871,288.4 149.725,287.95C149.579,287.501 149.768,287.01 150.178,286.774L153.789,284.701C154.577,284.248 155.063,283.409 155.063,282.5C155.063,281.591 154.577,280.752 153.789,280.299L150.178,278.226C149.768,277.99 149.579,277.499 149.725,277.05C149.871,276.6 150.313,276.314 150.783,276.364L154.923,276.809C155.826,276.906 156.713,276.513 157.247,275.777C157.781,275.042 157.881,274.078 157.51,273.248L155.808,269.448C155.614,269.017 155.75,268.508 156.133,268.23C156.515,267.952 157.04,267.981 157.391,268.298L160.479,271.091C161.153,271.701 162.101,271.903 162.966,271.623C163.83,271.342 164.478,270.62 164.665,269.731L165.521,265.656Z" style="fill:white;"/>
            </g>
            <g transform="matrix(0.715888,0.715888,-0.715888,0.715888,-164.60311,-477.4457)">
                <path d="M1023,218.5C1023,224.295 1018.295,229 1012.5,229L683.5,229C677.705,229 673,224.295 673,218.5C673,212.705 677.705,208 683.5,208L1012.5,208C1018.295,208 1023,212.705 1023,218.5Z" style="fill:white;"/>
            </g>
        </g>
    </g>
</svg>
