<?xml version="1.0" encoding="UTF-8" standalone="no"?><!DOCTYPE svg PUBLIC "-//W3C//DTD SVG 1.1//EN" "http://www.w3.org/Graphics/SVG/1.1/DTD/svg11.dtd"><svg width="100%" height="100%" viewBox="0 0 64 64" version="1.1" xmlns="http://www.w3.org/2000/svg" xmlns:xlink="http://www.w3.org/1999/xlink" xml:space="preserve" xmlns:serif="http://www.serif.com/" style="fill-rule:evenodd;clip-rule:evenodd;stroke-linecap:round;stroke-linejoin:round;stroke-miterlimit:1.5;"><g><g><g><g><path d="M52.7,26.5l-0,23.492c-0,0.381 -0.217,0.729 -0.559,0.898c-2.987,1.467 -17.026,8.362 -19.701,9.676c-0.278,0.137 -0.603,0.137 -0.881,0c-2.675,-1.314 -16.714,-8.209 -19.701,-9.676c-0.342,-0.169 -0.559,-0.517 -0.559,-0.898c0,-3.463 0,-20.287 0,-23.095l0.359,-0.225c2.378,1.145 15.899,7.65 19.474,9.37c0.548,0.264 1.187,0.264 1.735,-0c3.908,-1.881 19.699,-9.48 19.832,-9.544c0,-0.001 0,-0.001 0.001,-0.001c-0,0 -0,0.003 -0,0.003Z" style="fill:#febe5d;stroke:#584424;stroke-width:0.42px;"/><path d="M52.7,26.497l-0,23.495c-0,0.381 -0.217,0.729 -0.559,0.898c-2.99,1.468 -17.056,8.377 -19.709,9.68c-0.093,0.046 -0.203,0.041 -0.291,-0.014c-0.088,-0.055 -0.141,-0.151 -0.141,-0.255c-0,-3.413 -0,-23.813 -0,-23.813l20.7,-9.991l-0,0Z" style="fill:#c38c38;stroke:#584424;stroke-width:0.42px;"/><path d="M32,16.558l-0,19.93l20.7,-10.02l-20.7,-9.91" style="fill:#c38c38;stroke:#584424;stroke-width:0.42px;"/><path d="M11.299,26.571l20.701,-10.013l-0.008,19.93l-20.693,-9.917Z" style="fill:#805c25;stroke:#584424;stroke-width:0.42px;"/></g><path d="M18.448,48.671l-0,4.22l-6.082,-2.973l0,-4.221l6.082,2.974Z" style="fill:#c38c38;"/></g><g><path d="M20,11.35c-0,-0.381 0.217,-0.729 0.559,-0.897c2.053,-1.009 9.155,-4.498 11,-5.404c0.278,-0.137 0.604,-0.137 0.882,-0c1.845,0.906 8.946,4.395 11,5.404c0.342,0.168 0.559,0.516 0.559,0.897c-0,2.317 -0,10.418 -0,12.735c-0,0.381 -0.217,0.729 -0.559,0.897c-2.054,1.009 -9.155,4.497 -11,5.404c-0.278,0.136 -0.604,0.136 -0.882,-0c-1.845,-0.907 -8.947,-4.395 -11,-5.404c-0.342,-0.168 -0.559,-0.516 -0.559,-0.897c-0,-2.317 -0,-10.418 -0,-12.735Z" style="fill:#f4f4f4;"/><path d="M20,12.333c-0,-0.345 0.178,-0.666 0.471,-0.848c0.293,-0.183 0.66,-0.201 0.97,-0.049c2.065,1.015 5.887,2.892 8.322,4.088c1.369,0.672 2.237,2.065 2.237,3.59c-0,2.859 -0,7.463 -0,9.883c-0,0.345 -0.178,0.666 -0.472,0.849c-0.293,0.182 -0.659,0.201 -0.969,0.048c-2.658,-1.305 -8.222,-4.038 -10,-4.912c-0.342,-0.168 -0.559,-0.516 -0.559,-0.897c-0,-2.056 -0,-8.672 -0,-11.752Z" style="fill:#ebebeb;"/><path d="M44,12.333c-0,-0.345 -0.178,-0.666 -0.472,-0.848c-0.293,-0.183 -0.659,-0.201 -0.969,-0.049c-2.066,1.015 -5.888,2.892 -8.323,4.088c-1.369,0.672 -2.236,2.065 -2.236,3.59c-0,2.859 -0,7.463 -0,9.883c-0,0.345 0.178,0.666 0.471,0.849c0.293,0.182 0.66,0.201 0.97,0.048c2.657,-1.305 8.221,-4.038 10,-4.912c0.342,-0.168 0.559,-0.516 0.559,-0.897c-0,-2.056 -0,-8.672 -0,-11.752Z" style="fill:#c7c7c7;"/><path d="M21.827,11.624c-0.342,-0.168 -0.559,-0.516 -0.559,-0.897c-0,-0.382 0.217,-0.73 0.559,-0.898c2.845,-1.397 8.171,-4.013 9.732,-4.78c0.278,-0.137 0.604,-0.137 0.882,-0c1.561,0.767 6.886,3.383 9.731,4.78c0.343,0.168 0.56,0.516 0.56,0.898c-0,0.381 -0.217,0.729 -0.56,0.897c-2.281,1.121 -6.157,3.025 -8.409,4.131c-1.112,0.546 -2.415,0.546 -3.527,-0c-2.251,-1.106 -6.127,-3.01 -8.409,-4.131Z" style="fill:#fff;"/></g><path d="M32,36.458l2.394,8.851l20.119,-10.47l-1.813,-8.371l-20.7,9.99Z" style="fill:#c38c38;stroke:#584424;stroke-width:0.42px;"/><path d="M32,36.562l-2.394,8.851l-20.119,-10.47l1.812,-8.372l20.701,9.991Z" style="fill:#febe5d;stroke:#584424;stroke-width:0.42px;"/><g><path d="M29.017,10.327c-0.233,-0.011 -0.449,-0.062 -0.607,-0.137c-0.375,-0.178 -0.379,-0.461 -0.012,-0.63c0.371,-0.171 0.98,-0.163 1.357,0.017c0.188,0.09 0.267,0.198 0.282,0.289l1.495,-0.677c0.065,-0.029 0.174,-0.027 0.239,0.004l1.502,0.722c0.016,-0.09 0.097,-0.197 0.29,-0.282c0.387,-0.17 1.012,-0.16 1.392,0.024c0.378,0.183 0.371,0.469 -0.019,0.638c-0.165,0.071 -0.387,0.114 -0.627,0.118l1.492,0.717c0.064,0.031 0.062,0.079 -0.005,0.108l-0.913,0.384c-0.187,0.078 -0.411,0.073 -0.447,0.072c-0.036,-0 -0.259,-0.005 -0.439,-0.092l-0.005,-0.001c-0.372,-0.178 -0.986,-0.191 -1.366,-0.027c-0.377,0.161 -0.384,0.436 -0.013,0.612l-0,-0c0.134,0.064 0.18,0.142 0.178,0.202c-0.001,0.06 -0.05,0.136 -0.188,0.194l-0.876,0.369c-0.063,0.026 -0.17,0.024 -0.232,-0.005l-0.863,-0.408c-0.136,-0.064 -0.176,-0.142 -0.175,-0.198c0,-0.056 0.044,-0.132 0.182,-0.191l0.003,-0.003c0.372,-0.16 0.373,-0.434 0.004,-0.609c-0.371,-0.176 -0.974,-0.187 -1.343,-0.024l-0,0c-0.181,0.08 -0.401,0.076 -0.437,0.076c-0.036,-0.001 -0.255,-0.004 -0.437,-0.09l-0.864,-0.408c-0.065,-0.03 -0.065,-0.078 -0.003,-0.107l1.455,-0.657Z" style="fill:#c7c7c7;"/></g><g><path d="M24.048,21.045c-0.098,0.053 -0.244,0.064 -0.414,-0.022c-0.348,-0.174 -0.634,-0.66 -0.634,-1.077c-0,-0.42 0.285,-0.619 0.634,-0.444c0.236,0.118 0.39,0.354 0.415,0.392l-0,-1.663c-0,-0.073 0.051,-0.106 0.109,-0.077l1.387,0.693c-0.023,-0.042 -0.155,-0.291 -0.155,-0.575c0,-0.42 0.285,-0.618 0.634,-0.443c0.349,0.174 0.634,0.66 0.634,1.077c0,0.219 -0.08,0.355 -0.154,0.421l1.386,0.693c0.059,0.029 0.11,0.115 0.11,0.186l-0,0.997c-0,0.025 -0,0.201 -0.12,0.283c-0.018,0.013 -0.119,0.081 -0.286,-0.005l-0.009,-0.004c-0.349,-0.174 -0.634,0.024 -0.634,0.444c0,0.418 0.286,0.904 0.634,1.078l0.009,0.004c0.167,0.082 0.27,0.255 0.286,0.283c0.017,0.029 0.119,0.201 0.119,0.402c0.001,0.332 0.001,0.664 0.001,0.997c-0,0.073 -0.052,0.105 -0.11,0.077l-0.831,-0.416c-0.167,-0.084 -0.268,-0.258 -0.285,-0.286c-0.017,-0.029 -0.117,-0.201 -0.116,-0.401l0,-0.011c0,-0.417 -0.285,-0.903 -0.634,-1.078c-0.349,-0.174 -0.634,0.024 -0.634,0.444l0,0.01c0,0.025 0.002,0.202 -0.116,0.286c-0.018,0.013 -0.118,0.084 -0.285,0c-0.277,-0.138 -0.554,-0.276 -0.831,-0.414c-0.059,-0.03 -0.11,-0.115 -0.11,-0.187l0,-1.664Z" style="fill:#c7c7c7;"/></g><g><path d="M39.952,21.045c0.098,0.053 0.244,0.064 0.414,-0.022c0.348,-0.174 0.634,-0.66 0.634,-1.077c-0,-0.42 -0.285,-0.619 -0.634,-0.444c-0.236,0.118 -0.39,0.354 -0.415,0.392l0,-1.663c0,-0.073 -0.051,-0.106 -0.109,-0.077l-1.387,0.693c0.023,-0.042 0.155,-0.291 0.155,-0.575c-0,-0.42 -0.285,-0.618 -0.634,-0.443c-0.349,0.174 -0.634,0.66 -0.634,1.077c-0,0.219 0.08,0.355 0.154,0.421l-1.386,0.693c-0.059,0.029 -0.11,0.115 -0.11,0.186l0,0.997c0,0.025 0,0.201 0.12,0.283c0.018,0.013 0.119,0.081 0.286,-0.005l0.009,-0.004c0.349,-0.174 0.634,0.024 0.634,0.444c-0,0.418 -0.286,0.904 -0.634,1.078l-0.009,0.004c-0.167,0.082 -0.27,0.255 -0.286,0.283c-0.017,0.029 -0.119,0.201 -0.119,0.402c-0.001,0.332 -0.001,0.664 -0.001,0.997c0,0.073 0.052,0.105 0.11,0.077l0.831,-0.416c0.167,-0.084 0.268,-0.258 0.285,-0.286c0.017,-0.029 0.117,-0.201 0.116,-0.401l-0,-0.011c-0,-0.417 0.285,-0.903 0.634,-1.078c0.349,-0.174 0.634,0.024 0.634,0.444l-0,0.01c-0,0.025 -0.002,0.202 0.116,0.286c0.018,0.013 0.118,0.084 0.285,0c0.277,-0.138 0.554,-0.276 0.831,-0.414c0.059,-0.03 0.11,-0.115 0.11,-0.187l-0,-1.664Z" style="fill:#a3a3a3;"/></g><g><g><path d="M33.964,56.37l0,1.806l-0.964,0.468l-0,-5.35l1.593,-0.731c0.06,-0.028 0.455,-0.209 0.803,-0.144c0.053,0.009 0.35,0.06 0.54,0.386c0.192,0.32 0.192,0.772 0.192,0.841c-0,0.119 -0,0.77 -0.414,1.43c-0.065,0.103 -0.413,0.657 -1.137,1.002l-0.613,0.292Zm0,-0.991l0.629,-0.297c0.278,-0.131 0.4,-0.345 0.423,-0.385c0.024,-0.042 0.147,-0.254 0.147,-0.592c-0,-0.044 -0,-0.371 -0.15,-0.523c-0.113,-0.116 -0.273,-0.097 -0.409,-0.036l-0.64,0.297l0,1.536Z" style="fill:#febe5d;fill-rule:nonzero;"/><path d="M38.371,55.066l-1.287,0.618l-0.225,1.089l-1.013,0.491c0.48,-1.979 0.96,-3.958 1.44,-5.938l0.883,-0.405c0.476,1.508 0.952,3.016 1.428,4.524l-0.999,0.485l-0.227,-0.864Zm-1.061,-0.465l0.837,-0.398l-0.419,-1.615l-0.418,2.013Z" style="fill:#febe5d;fill-rule:nonzero;"/><path d="M41.298,52.808l-0.497,0.236l-0,1.818l-0.924,0.448l0,-5.174l1.505,-0.69c0.077,-0.036 0.675,-0.31 1.054,-0.081c0.378,0.228 0.378,0.881 0.378,0.963c0,0.533 -0.133,0.886 -0.16,0.959c-0.026,0.07 -0.158,0.425 -0.498,0.803l0.788,1.681l-0,0.052l-0.976,0.473l-0.67,-1.488Zm-0.497,-0.722l0.581,-0.274c0.261,-0.123 0.371,-0.329 0.391,-0.367c0.023,-0.042 0.133,-0.249 0.133,-0.58c0,-0.143 -0.015,-0.345 -0.133,-0.455c-0.109,-0.106 -0.27,-0.065 -0.391,-0.009l-0.581,0.27l-0,1.415Z" style="fill:#febe5d;fill-rule:nonzero;"/><path d="M46.368,50.468c-0.017,0.531 -0.177,0.946 -0.207,1.024c-0.19,0.491 -0.48,0.818 -0.535,0.879c-0.343,0.387 -0.715,0.568 -0.786,0.603c-0.104,0.05 -0.724,0.367 -1.159,-0.09c-0.425,-0.449 -0.425,-1.505 -0.425,-1.64l0,-0.252c0,-0.748 0.159,-1.287 0.191,-1.395c0.193,-0.652 0.492,-1.041 0.553,-1.12c0.359,-0.471 0.751,-0.651 0.83,-0.687c0.078,-0.036 0.674,-0.31 1.083,-0.015c0.407,0.291 0.457,1.011 0.463,1.107l-0.887,0.415c-0.001,-0.048 -0.01,-0.454 -0.17,-0.58c-0.142,-0.112 -0.347,-0.04 -0.489,0.026c-0.055,0.025 -0.335,0.155 -0.491,0.568c-0.157,0.414 -0.163,1.071 -0.164,1.165l-0,0.358c-0,0.088 -0,0.81 0.148,1.087c0.151,0.275 0.479,0.118 0.517,0.099c0.308,-0.148 0.445,-0.379 0.471,-0.423c0.163,-0.275 0.172,-0.65 0.173,-0.708l0.884,-0.421Z" style="fill:#febe5d;fill-rule:nonzero;"/><path d="M49.044,48.773l-1.375,0.652l-0,1.186l1.622,-0.779l0,0.914c-0.834,0.405 -1.669,0.81 -2.504,1.214l0,-4.996c0.837,-0.384 1.673,-0.768 2.509,-1.152l0,0.918l-1.627,0.755l-0,1.049l1.375,-0.646l-0,0.885Z" style="fill:#febe5d;fill-rule:nonzero;"/><path d="M50.509,49.247l1.491,-0.716l0,0.902c-0.785,0.381 -1.57,0.761 -2.355,1.142l-0,-4.923l0.864,-0.397l-0,3.992Z" style="fill:#febe5d;fill-rule:nonzero;"/></g></g></g><path d="M52.247,26.535l-20.255,9.699l-20.239,-9.699l-5.629,-23.18l51.752,0l-5.629,23.18Z" style="fill:url(#_Linear1);"/></g><defs><linearGradient id="_Linear1" x1="0" y1="0" x2="1" y2="0" gradientUnits="userSpaceOnUse" gradientTransform="matrix(0.00794802,-29.042,29.042,0.00794802,31.9921,36.234)"><stop offset="0" style="stop-color:#d3c07d;stop-opacity:1"/><stop offset="0.51" style="stop-color:#e8df62;stop-opacity:0.25"/><stop offset="1" style="stop-color:#efea59;stop-opacity:0"/></linearGradient></defs></svg>