<?xml version="1.0" encoding="UTF-8" standalone="no"?><!DOCTYPE svg PUBLIC "-//W3C//DTD SVG 1.1//EN" "http://www.w3.org/Graphics/SVG/1.1/DTD/svg11.dtd"><svg width="100%" height="100%" viewBox="0 0 64 64" version="1.1" xmlns="http://www.w3.org/2000/svg" xmlns:xlink="http://www.w3.org/1999/xlink" xml:space="preserve" xmlns:serif="http://www.serif.com/" style="fill-rule:evenodd;clip-rule:evenodd;stroke-linecap:round;stroke-linejoin:round;stroke-miterlimit:1.5;"><g><path d="M32,14.84l-0,19.931l20.7,-10.021l-20.7,-9.91" style="fill:#c38c38;stroke:#584424;stroke-width:0.83px;"/><path d="M11.3,24.854l20.7,-10.014l-0.008,19.931l-20.692,-9.917Z" style="fill:#805c25;stroke:#584424;stroke-width:0.83px;"/><g><path d="M20,12.518c0,-0.381 0.217,-0.729 0.559,-0.898c2.053,-1.008 9.155,-4.497 11,-5.403c0.278,-0.137 0.604,-0.137 0.882,-0c1.845,0.906 8.947,4.395 11,5.403c0.342,0.169 0.559,0.517 0.559,0.898c0,2.316 0,10.418 0,12.734c0,0.382 -0.217,0.73 -0.559,0.898c-2.054,1.009 -9.155,4.497 -11,5.403c-0.278,0.137 -0.604,0.137 -0.882,0c-1.845,-0.906 -8.946,-4.394 -11,-5.403c-0.342,-0.168 -0.559,-0.516 -0.559,-0.898c0,-2.316 0,-10.418 -0,-12.734Z" style="fill:#f4f4f4;"/><path d="M20,13.501c0,-0.345 0.178,-0.666 0.471,-0.849c0.293,-0.182 0.66,-0.201 0.97,-0.048c2.066,1.014 5.888,2.892 8.323,4.088c1.369,0.672 2.236,2.065 2.236,3.59c0,2.859 0,7.462 0,9.882c-0,0.346 -0.178,0.667 -0.471,0.849c-0.293,0.183 -0.66,0.201 -0.97,0.049c-2.657,-1.305 -8.222,-4.038 -10,-4.912c-0.342,-0.168 -0.559,-0.516 -0.559,-0.898c0,-2.056 0,-8.671 0,-11.751Z" style="fill:#ebebeb;"/><path d="M44,13.501c-0,-0.345 -0.178,-0.666 -0.471,-0.849c-0.293,-0.182 -0.66,-0.201 -0.97,-0.048c-2.066,1.014 -5.888,2.892 -8.323,4.088c-1.369,0.672 -2.236,2.065 -2.236,3.59c-0,2.859 -0,7.462 -0,9.882c0,0.346 0.178,0.667 0.471,0.849c0.293,0.183 0.66,0.201 0.97,0.049c2.657,-1.305 8.222,-4.038 10,-4.912c0.342,-0.168 0.559,-0.516 0.559,-0.898c0,-2.056 0,-8.671 0,-11.751Z" style="fill:#c7c7c7;"/><path d="M21.827,12.792c-0.342,-0.168 -0.559,-0.516 -0.559,-0.898c0,-0.381 0.217,-0.729 0.559,-0.897c2.846,-1.398 8.171,-4.014 9.732,-4.78c0.278,-0.137 0.604,-0.137 0.882,-0c1.561,0.766 6.886,3.382 9.732,4.78c0.342,0.168 0.559,0.516 0.559,0.897c-0,0.382 -0.217,0.73 -0.559,0.898c-2.282,1.121 -6.158,3.025 -8.409,4.13c-1.113,0.547 -2.415,0.547 -3.528,0c-2.251,-1.105 -6.127,-3.009 -8.409,-4.13Z" style="fill:#fff;"/></g><path d="M24.015,21.21l-0,-1.316c-0,-0.081 0.041,-0.156 0.109,-0.198c0.069,-0.043 0.154,-0.047 0.227,-0.012l0.837,0.411c-0.012,-0.131 -0.038,-0.373 0.008,-0.465c0.139,-0.28 0.563,-0.074 0.64,0.299c0.033,0.161 0.009,0.366 0.001,0.486l1.334,0.655c0.08,0.039 0.131,0.12 0.131,0.209c-0,0 -0,0.858 -0,1.171c-0.001,0.044 -0.03,0.083 -0.073,0.095c-0.043,0.012 -0.088,-0.005 -0.112,-0.043c-0.034,-0.069 -0.13,-0.106 -0.201,-0.089c-0.355,0.087 -0.358,0.644 0,0.839c0.201,0.11 0.386,0.164 0.386,0.164l-0,1.172c-0,0.081 -0.042,0.156 -0.11,0.198c-0.069,0.043 -0.154,0.047 -0.227,0.012c0,-0 -0.506,-0.249 -0.837,-0.411c-0.16,-0.08 -0.266,-0.239 -0.277,-0.418c-0.001,-0.1 -0.005,-0.199 -0.015,-0.25c-0.077,-0.373 -0.501,-0.579 -0.64,-0.299c-0.02,0.041 -0.027,0.208 -0.028,0.34c-0.002,0.033 -0.021,0.063 -0.049,0.08c-0.029,0.017 -0.064,0.018 -0.094,0.004c-0.282,-0.138 -0.88,-0.431 -0.88,-0.431c-0.08,-0.04 -0.13,-0.121 -0.13,-0.21l-0,-1.131c-0.137,-0.061 -0.171,-0.051 -0.332,-0.139c-0.357,-0.196 -0.354,-0.753 0,-0.839c0.116,-0.028 0.186,0.028 0.332,0.116Z" style="fill:#c7c7c7;"/><path d="M39.902,21.21l-0,-1.316c-0,-0.081 -0.042,-0.156 -0.11,-0.198c-0.069,-0.043 -0.154,-0.047 -0.227,-0.012l-0.837,0.411c0.012,-0.131 0.038,-0.373 -0.008,-0.465c-0.139,-0.28 -0.563,-0.074 -0.64,0.299c-0.033,0.161 -0.009,0.366 -0.001,0.486l-1.334,0.655c-0.08,0.039 -0.13,0.12 -0.13,0.209c-0,0 -0,0.761 -0,1.111c-0,0.03 0.013,0.058 0.036,0.076c0.023,0.019 0.053,0.027 0.082,0.022c0.081,-0.047 0.189,-0.094 0.267,-0.075c0.355,0.087 0.358,0.644 0,0.839c-0.201,0.11 -0.385,0.164 -0.385,0.164l-0,1.172c-0,0.081 0.041,0.156 0.11,0.198c0.068,0.043 0.153,0.047 0.226,0.012c-0,-0 0.506,-0.249 0.837,-0.411c0.161,-0.08 0.267,-0.239 0.278,-0.418c-0,-0.1 0.004,-0.199 0.014,-0.25c0.077,-0.373 0.501,-0.579 0.64,-0.299c0.02,0.041 0.027,0.208 0.029,0.34c0.001,0.033 0.02,0.063 0.048,0.08c0.029,0.017 0.064,0.018 0.094,0.004c0.282,-0.138 0.88,-0.431 0.88,-0.431c0.08,-0.04 0.131,-0.121 0.131,-0.21l-0,-1.131c0.136,-0.061 0.17,-0.051 0.331,-0.139c0.358,-0.196 0.355,-0.753 -0,-0.839c-0.116,-0.028 -0.186,0.028 -0.331,0.116Z" style="fill:#a3a3a3;"/><g><g><path d="M52.7,24.783l-0,23.492c-0,0.381 -0.217,0.729 -0.559,0.897c-2.987,1.467 -17.025,8.363 -19.7,9.677c-0.278,0.137 -0.604,0.137 -0.882,-0c-2.675,-1.314 -16.714,-8.21 -19.7,-9.677c-0.343,-0.168 -0.559,-0.516 -0.559,-0.897c-0,-3.781 -0,-23.495 -0,-23.495c-0,0 15.908,7.656 19.832,9.544c0.549,0.264 1.187,0.264 1.735,0c3.908,-1.88 19.699,-9.479 19.832,-9.544c0,0 0.001,-0 0.001,-0c-0,0 -0,0.003 -0,0.003Z" style="fill:#febe5d;stroke:#584424;stroke-width:1px;"/><path d="M52.7,24.78l-0,23.495c-0,0.381 -0.217,0.729 -0.559,0.897c-2.943,1.446 -16.61,8.159 -19.573,9.615c-0.123,0.06 -0.267,0.052 -0.383,-0.02c-0.115,-0.072 -0.185,-0.198 -0.185,-0.334c-0,-3.822 -0,-23.662 -0,-23.662l20.7,-9.991l-0,0Z" style="fill:#c38c38;stroke:#584424;stroke-width:1px;"/></g><path d="M18.448,46.953l0,4.221l-6.081,-2.974l-0,-4.22l6.081,2.973Z" style="fill:#c38c38;"/></g><path d="M32,34.741l2.394,8.851l20.336,-10.47l-1.813,-8.372l-20.917,9.991Z" style="fill:#c38c38;stroke:#584424;stroke-width:0.83px;"/><path d="M32,34.741l-2.394,8.851l-20.336,-10.47l1.813,-8.372l20.917,9.991Z" style="fill:#febe5d;stroke:#584424;stroke-width:0.83px;"/></g><path d="M52.247,24.68l-20.255,9.699l-20.238,-9.699l-5.63,-23.18l51.753,0l-5.63,23.18Z" style="fill:url(#_Linear1);"/><g><g><path d="M33.952,54.655l-0,1.807l-0.952,0.465l0,-5.35l1.573,-0.727c0.058,-0.027 0.449,-0.208 0.792,-0.141c0.052,0.009 0.346,0.061 0.533,0.387c0.189,0.32 0.189,0.772 0.189,0.841c0,0.119 0,0.771 -0.408,1.429c-0.064,0.103 -0.408,0.656 -1.122,0.999l-0.605,0.29Zm-0,-0.991l0.621,-0.295c0.274,-0.13 0.394,-0.344 0.417,-0.383c0.024,-0.043 0.145,-0.254 0.145,-0.593c-0,-0.043 -0,-0.37 -0.148,-0.523c-0.112,-0.115 -0.269,-0.098 -0.404,-0.037l-0.631,0.295l-0,1.536Z" style="fill:#584424;fill-rule:nonzero;"/><path d="M38.301,53.364l-1.27,0.614l-0.223,1.089l-0.998,0.487c0.473,-1.977 0.947,-3.955 1.42,-5.933l0.871,-0.403c0.47,1.51 0.941,3.019 1.411,4.529l-0.987,0.481l-0.224,-0.864Zm-1.047,-0.469l0.826,-0.395l-0.414,-1.616l-0.412,2.011Z" style="fill:#584424;fill-rule:nonzero;"/><path d="M41.19,51.113l-0.491,0.236l0,1.818l-0.911,0.445l-0,-5.174l1.485,-0.686c0.075,-0.035 0.666,-0.308 1.04,-0.078c0.374,0.229 0.374,0.882 0.374,0.965c-0,0.532 -0.132,0.884 -0.159,0.957c-0.026,0.071 -0.156,0.425 -0.492,0.803l0.778,1.682l0,0.053l-0.962,0.47l-0.662,-1.491Zm-0.491,-0.723l0.574,-0.272c0.257,-0.122 0.366,-0.328 0.386,-0.366c0.022,-0.042 0.131,-0.249 0.131,-0.579c-0,-0.143 -0.015,-0.345 -0.131,-0.456c-0.108,-0.105 -0.266,-0.066 -0.386,-0.01l-0.574,0.268l0,1.415Z" style="fill:#584424;fill-rule:nonzero;"/><path d="M46.194,48.788c-0.017,0.531 -0.175,0.946 -0.204,1.024c-0.188,0.49 -0.474,0.815 -0.528,0.877c-0.339,0.386 -0.706,0.566 -0.777,0.6c-0.103,0.051 -0.715,0.365 -1.143,-0.093c-0.419,-0.449 -0.419,-1.506 -0.419,-1.641l-0,-0.252c-0,-0.747 0.156,-1.286 0.188,-1.394c0.191,-0.651 0.486,-1.04 0.546,-1.119c0.354,-0.47 0.741,-0.649 0.818,-0.685c0.078,-0.035 0.666,-0.307 1.07,-0.011c0.402,0.292 0.45,1.012 0.457,1.108l-0.876,0.413c-0.001,-0.049 -0.01,-0.455 -0.168,-0.581c-0.139,-0.112 -0.342,-0.041 -0.483,0.025c-0.054,0.025 -0.33,0.154 -0.484,0.566c-0.155,0.413 -0.161,1.071 -0.162,1.165l-0,0.358c-0,0.088 -0,0.81 0.147,1.087c0.149,0.276 0.472,0.119 0.509,0.101c0.305,-0.147 0.44,-0.379 0.466,-0.422c0.16,-0.275 0.169,-0.65 0.17,-0.708l0.873,-0.418Z" style="fill:#584424;fill-rule:nonzero;"/><path d="M48.834,47.101l-1.357,0.648l0,1.185l1.602,-0.774l-0,0.914c-0.824,0.403 -1.648,0.805 -2.472,1.207l0,-4.996c0.826,-0.382 1.651,-0.764 2.477,-1.145l-0,0.918l-1.607,0.75l0,1.049l1.357,-0.642l0,0.886Z" style="fill:#584424;fill-rule:nonzero;"/><path d="M50.28,47.579l1.472,-0.712l0,0.902c-0.775,0.378 -1.549,0.757 -2.324,1.135l-0,-4.923l0.852,-0.395l0,3.993Z" style="fill:#584424;fill-rule:nonzero;"/></g></g><defs><linearGradient id="_Linear1" x1="0" y1="0" x2="1" y2="0" gradientUnits="userSpaceOnUse" gradientTransform="matrix(0.00794802,-29.042,29.042,0.00794802,31.9923,34.3789)"><stop offset="0" style="stop-color:#d3c07d;stop-opacity:1"/><stop offset="0.51" style="stop-color:#e8df62;stop-opacity:0.25"/><stop offset="1" style="stop-color:#efea59;stop-opacity:0"/></linearGradient></defs></svg>