<?xml version="1.0" encoding="UTF-8" standalone="no"?><!DOCTYPE svg PUBLIC "-//W3C//DTD SVG 1.1//EN" "http://www.w3.org/Graphics/SVG/1.1/DTD/svg11.dtd"><svg width="100%" height="100%" viewBox="0 0 64 64" version="1.1" xmlns="http://www.w3.org/2000/svg" xmlns:xlink="http://www.w3.org/1999/xlink" xml:space="preserve" xmlns:serif="http://www.serif.com/" style="fill-rule:evenodd;clip-rule:evenodd;stroke-linecap:round;stroke-linejoin:round;stroke-miterlimit:1.5;"><g><g><g><g><path d="M52.7,26.5l-0,23.492c-0,0.381 -0.217,0.729 -0.559,0.898c-2.987,1.467 -17.026,8.362 -19.701,9.676c-0.278,0.137 -0.603,0.137 -0.881,0c-2.675,-1.314 -16.714,-8.209 -19.701,-9.676c-0.342,-0.169 -0.559,-0.517 -0.559,-0.898c0,-3.463 0,-20.287 0,-23.095l0.359,-0.225c2.378,1.145 15.899,7.65 19.474,9.37c0.548,0.264 1.187,0.264 1.735,-0c3.908,-1.881 19.699,-9.48 19.832,-9.544c0,-0.001 0,-0.001 0.001,-0.001c-0,0 -0,0.003 -0,0.003Z" style="fill:#febe5d;stroke:#584424;stroke-width:0.42px;"/><path d="M52.7,26.497l-0,23.495c-0,0.381 -0.217,0.729 -0.559,0.898c-2.99,1.468 -17.056,8.377 -19.709,9.68c-0.093,0.046 -0.203,0.041 -0.291,-0.014c-0.088,-0.055 -0.141,-0.151 -0.141,-0.255c-0,-3.413 -0,-23.813 -0,-23.813l20.7,-9.991l-0,0Z" style="fill:#c38c38;stroke:#584424;stroke-width:0.42px;"/><path d="M32,16.558l-0,19.93l20.7,-10.02l-20.7,-9.91" style="fill:#c38c38;stroke:#584424;stroke-width:0.42px;"/><path d="M11.299,26.571l20.701,-10.013l-0.008,19.93l-20.693,-9.917Z" style="fill:#805c25;stroke:#584424;stroke-width:0.42px;"/></g><path d="M18.448,48.671l-0,4.22l-6.082,-2.973l0,-4.221l6.082,2.974Z" style="fill:#c38c38;"/></g><g><path d="M20,11.35c-0,-0.381 0.217,-0.729 0.559,-0.897c1.915,-0.941 8.221,-4.039 10.559,-5.187c0.556,-0.274 1.207,-0.274 1.764,-0c2.337,1.148 8.644,4.246 10.559,5.187c0.342,0.168 0.559,0.516 0.559,0.897c-0,2.317 -0,10.418 -0,12.735c-0,0.381 -0.217,0.729 -0.559,0.897c-2.054,1.009 -9.155,4.497 -11,5.404c-0.278,0.136 -0.604,0.136 -0.882,-0c-1.845,-0.907 -8.947,-4.395 -11,-5.404c-0.342,-0.168 -0.559,-0.516 -0.559,-0.897c-0,-2.317 -0,-10.418 -0,-12.735Z" style="fill:#f4f4f4;"/><path d="M20,12.333c-0,-0.345 0.178,-0.666 0.471,-0.848c0.293,-0.183 0.66,-0.201 0.97,-0.049c2.065,1.015 5.887,2.892 8.322,4.088c1.369,0.672 2.237,2.065 2.237,3.59c-0,2.859 -0,7.463 -0,9.883c-0,0.345 -0.178,0.666 -0.472,0.849c-0.293,0.182 -0.659,0.201 -0.969,0.048c-2.658,-1.305 -8.222,-4.038 -10,-4.912c-0.342,-0.168 -0.559,-0.516 -0.559,-0.897c-0,-2.056 -0,-8.672 -0,-11.752Z" style="fill:#ebebeb;"/><path d="M44,12.333c-0,-0.345 -0.178,-0.666 -0.472,-0.848c-0.293,-0.183 -0.659,-0.201 -0.969,-0.049c-2.066,1.015 -5.888,2.892 -8.323,4.088c-1.369,0.672 -2.236,2.065 -2.236,3.59c-0,2.859 -0,7.463 -0,9.883c-0,0.345 0.178,0.666 0.471,0.849c0.293,0.182 0.66,0.201 0.97,0.048c2.657,-1.305 8.221,-4.038 10,-4.912c0.342,-0.168 0.559,-0.516 0.559,-0.897c-0,-2.056 -0,-8.672 -0,-11.752Z" style="fill:#c7c7c7;"/><path d="M21.827,11.624c-0.342,-0.168 -0.559,-0.516 -0.559,-0.897c-0,-0.382 0.217,-0.73 0.559,-0.898c2.619,-1.286 7.339,-3.605 9.291,-4.564c0.556,-0.273 1.207,-0.273 1.764,0c1.951,0.959 6.671,3.278 9.29,4.564c0.343,0.168 0.56,0.516 0.56,0.898c-0,0.381 -0.217,0.729 -0.56,0.897c-2.281,1.121 -6.157,3.025 -8.409,4.131c-1.112,0.546 -2.415,0.546 -3.527,-0c-2.251,-1.106 -6.127,-3.01 -8.409,-4.131Z" style="fill:#fff;"/></g><path d="M32,36.458l2.394,8.851l20.119,-10.47l-1.813,-8.371l-20.7,9.99Z" style="fill:#c38c38;stroke:#584424;stroke-width:0.42px;"/><path d="M32,36.562l-2.394,8.851l-20.119,-10.47l1.812,-8.372l20.701,9.991Z" style="fill:#febe5d;stroke:#584424;stroke-width:0.42px;"/><g><path d="M29.017,10.327c-0.233,-0.011 -0.449,-0.062 -0.607,-0.137c-0.375,-0.178 -0.379,-0.461 -0.012,-0.63c0.371,-0.171 0.981,-0.163 1.357,0.017c0.188,0.09 0.267,0.198 0.282,0.289l1.495,-0.676c0.065,-0.03 0.174,-0.028 0.239,0.003l1.502,0.722c0.016,-0.09 0.097,-0.197 0.289,-0.282c0.387,-0.17 1.013,-0.16 1.392,0.024c0.379,0.183 0.372,0.469 -0.019,0.638c-0.164,0.071 -0.387,0.114 -0.626,0.118l1.491,0.717c0.065,0.031 0.063,0.079 -0.004,0.108l-0.913,0.384c-0.188,0.078 -0.411,0.073 -0.447,0.072c-0.036,-0 -0.26,-0.006 -0.439,-0.092l-0.005,-0.001c-0.372,-0.178 -0.986,-0.191 -1.366,-0.028c-0.377,0.162 -0.384,0.437 -0.013,0.612l-0,0c0.241,0.115 0.236,0.293 -0.01,0.397l-0.876,0.368c-0.063,0.027 -0.17,0.025 -0.232,-0.005l-0.863,-0.407c-0.136,-0.064 -0.176,-0.142 -0.175,-0.198c0.001,-0.056 0.044,-0.133 0.182,-0.191l0.003,-0.003c0.372,-0.16 0.373,-0.434 0.004,-0.609c-0.37,-0.176 -0.974,-0.187 -1.343,-0.024l-0,0c-0.239,0.106 -0.633,0.1 -0.873,-0.014l-0.865,-0.408c-0.064,-0.03 -0.065,-0.078 -0.002,-0.107l1.454,-0.657Z" style="fill:#ebebeb;"/></g><g><path d="M24.048,21.045c-0.098,0.053 -0.244,0.064 -0.414,-0.022c-0.348,-0.174 -0.634,-0.66 -0.634,-1.077c-0,-0.42 0.285,-0.619 0.634,-0.444c0.236,0.118 0.39,0.354 0.415,0.392l-0,-1.663c-0,-0.073 0.051,-0.106 0.109,-0.077l1.387,0.693c-0.023,-0.042 -0.155,-0.291 -0.155,-0.575c0,-0.42 0.285,-0.618 0.634,-0.443c0.349,0.174 0.634,0.66 0.634,1.077c0,0.219 -0.08,0.355 -0.154,0.421l1.386,0.693c0.059,0.029 0.11,0.115 0.11,0.186l-0,0.997c-0,0.025 -0,0.201 -0.12,0.283c-0.018,0.013 -0.119,0.081 -0.286,-0.005l-0.009,-0.004c-0.349,-0.174 -0.634,0.024 -0.634,0.444c0,0.418 0.286,0.904 0.634,1.078l0.009,0.004c0.167,0.082 0.27,0.255 0.286,0.283c0.017,0.029 0.119,0.201 0.119,0.402c0.001,0.332 0.001,0.664 0.001,0.997c-0,0.073 -0.052,0.105 -0.11,0.077l-0.831,-0.416c-0.167,-0.084 -0.268,-0.258 -0.285,-0.286c-0.017,-0.029 -0.117,-0.201 -0.116,-0.401l0,-0.011c0,-0.417 -0.285,-0.903 -0.634,-1.078c-0.349,-0.174 -0.634,0.024 -0.634,0.444l0,0.01c0,0.025 0.002,0.202 -0.116,0.286c-0.018,0.013 -0.118,0.084 -0.285,0c-0.277,-0.138 -0.554,-0.276 -0.831,-0.414c-0.059,-0.03 -0.11,-0.115 -0.11,-0.187l0,-1.664Z" style="fill:#c7c7c7;"/></g><g><path d="M39.952,21.045c0.098,0.053 0.244,0.064 0.414,-0.022c0.348,-0.174 0.634,-0.66 0.634,-1.077c-0,-0.42 -0.285,-0.619 -0.634,-0.444c-0.236,0.118 -0.39,0.354 -0.415,0.392l0,-1.663c0,-0.073 -0.051,-0.106 -0.109,-0.077l-1.387,0.693c0.023,-0.042 0.155,-0.291 0.155,-0.575c-0,-0.42 -0.285,-0.618 -0.634,-0.443c-0.349,0.174 -0.634,0.66 -0.634,1.077c-0,0.219 0.08,0.355 0.154,0.421l-1.386,0.693c-0.059,0.029 -0.11,0.115 -0.11,0.186l0,0.997c0,0.025 0,0.201 0.12,0.283c0.018,0.013 0.119,0.081 0.286,-0.005l0.009,-0.004c0.349,-0.174 0.634,0.024 0.634,0.444c-0,0.418 -0.286,0.904 -0.634,1.078l-0.009,0.004c-0.167,0.082 -0.27,0.255 -0.286,0.283c-0.017,0.029 -0.119,0.201 -0.119,0.402c-0.001,0.332 -0.001,0.664 -0.001,0.997c0,0.073 0.052,0.105 0.11,0.077l0.831,-0.416c0.167,-0.084 0.268,-0.258 0.285,-0.286c0.017,-0.029 0.117,-0.201 0.116,-0.401l-0,-0.011c-0,-0.417 0.285,-0.903 0.634,-1.078c0.349,-0.174 0.634,0.024 0.634,0.444l-0,0.01c-0,0.025 -0.002,0.202 0.116,0.286c0.018,0.013 0.118,0.084 0.285,0c0.277,-0.138 0.554,-0.276 0.831,-0.414c0.059,-0.03 0.11,-0.115 0.11,-0.187l-0,-1.664Z" style="fill:#a3a3a3;"/></g><g><g><path d="M33.918,57.153l0,1.556l-0.918,0.445c-0,-1.529 -0,-3.058 -0,-4.588l1.52,-0.731c0.057,-0.027 0.436,-0.21 0.77,-0.176c0.337,0.03 0.493,0.261 0.52,0.3c0.185,0.266 0.185,0.66 0.185,0.719c-0,0.106 -0,0.669 -0.4,1.265c-0.063,0.095 -0.396,0.591 -1.091,0.927l-0.586,0.283Zm0,-0.853l0.601,-0.29c0.267,-0.129 0.383,-0.32 0.405,-0.356c0.023,-0.037 0.141,-0.229 0.141,-0.521c0,-0.152 -0.019,-0.338 -0.143,-0.444c-0.114,-0.097 -0.269,-0.064 -0.392,-0.006l-0.612,0.295l0,1.322Z" style="fill:#febe5d;fill-rule:nonzero;"/><path d="M38.173,55.792l-1.253,0.606l-0.219,0.961l-0.978,0.474c0.464,-1.749 0.929,-3.498 1.393,-5.247l0.859,-0.414c0.467,1.297 0.933,2.594 1.399,3.89l-0.98,0.476l-0.221,-0.746Zm-1.034,-0.351l0.815,-0.394l-0.408,-1.387l-0.407,1.781Z" style="fill:#febe5d;fill-rule:nonzero;"/><path d="M41.054,53.639l-0.493,0.238l0,1.61l-0.911,0.442c-0,-1.521 -0,-3.042 -0,-4.562l1.487,-0.716c0.077,-0.037 0.672,-0.323 1.05,-0.145c0.378,0.177 0.378,0.76 0.378,0.833c-0,0.475 -0.134,0.8 -0.161,0.865c-0.027,0.067 -0.158,0.389 -0.497,0.747l0.787,1.454l0,0.047l-0.974,0.472l-0.666,-1.285Zm-0.493,-0.61l0.576,-0.278c0.259,-0.125 0.368,-0.314 0.389,-0.351c0.022,-0.037 0.132,-0.229 0.132,-0.523c0,-0.129 -0.017,-0.307 -0.132,-0.396c-0.114,-0.091 -0.274,-0.037 -0.389,0.018l-0.576,0.278l0,1.252Z" style="fill:#febe5d;fill-rule:nonzero;"/><path d="M46.156,51.237c-0.002,0.077 -0.018,0.482 -0.211,0.94c-0.031,0.073 -0.193,0.455 -0.544,0.825c-0.349,0.369 -0.727,0.552 -0.798,0.586c-0.084,0.041 -0.742,0.36 -1.169,-0.017c-0.426,-0.377 -0.426,-1.322 -0.426,-1.442l-0,-0.225c-0,-0.669 0.16,-1.164 0.191,-1.261c0.194,-0.596 0.497,-0.969 0.556,-1.042c0.362,-0.449 0.76,-0.64 0.838,-0.678c0.079,-0.038 0.684,-0.329 1.099,-0.092c0.416,0.233 0.466,0.883 0.472,0.969l-0.903,0.435c-0.001,-0.043 -0.01,-0.409 -0.173,-0.512c-0.149,-0.094 -0.356,-0.009 -0.495,0.058c-0.054,0.026 -0.339,0.163 -0.497,0.545c-0.157,0.382 -0.164,0.971 -0.165,1.057l-0,0.321c-0,0.079 -0,0.728 0.15,0.967c0.152,0.239 0.484,0.078 0.522,0.06c0.312,-0.152 0.45,-0.367 0.478,-0.41c0.165,-0.257 0.174,-0.595 0.175,-0.649l0.9,-0.435Z" style="fill:#febe5d;fill-rule:nonzero;"/><path d="M48.908,49.52l-1.419,0.686l-0.001,1.08l1.677,-0.812l0,0.839c-0.86,0.417 -1.72,0.835 -2.581,1.252c0,-1.512 0,-3.023 0,-4.535c0.862,-0.414 1.725,-0.829 2.587,-1.244l-0,0.842l-1.682,0.811l-0,0.955l1.419,-0.685l0,0.811Z" style="fill:#febe5d;fill-rule:nonzero;"/><path d="M50.434,49.86l1.566,-0.759l0,0.837c-0.822,0.399 -1.645,0.798 -2.467,1.197c-0,-1.508 -0,-3.015 -0,-4.523l0.901,-0.434c-0,1.227 -0,2.455 -0,3.682Z" style="fill:#febe5d;fill-rule:nonzero;"/></g></g></g><path d="M52.219,26.468l-20.219,9.808l-20.209,-9.704l-5.629,-23.179l51.752,-0l-5.695,23.075Z" style="fill:url(#_Linear1);"/></g><defs><linearGradient id="_Linear1" x1="0" y1="0" x2="1" y2="0" gradientUnits="userSpaceOnUse" gradientTransform="matrix(0.00794802,-29.042,29.042,0.00794802,32.03,36.2714)"><stop offset="0" style="stop-color:#d3c07d;stop-opacity:1"/><stop offset="0.51" style="stop-color:#e8df62;stop-opacity:0.25"/><stop offset="1" style="stop-color:#efea59;stop-opacity:0"/></linearGradient></defs></svg>