<?xml version="1.0" encoding="UTF-8" standalone="no"?><!DOCTYPE svg PUBLIC "-//W3C//DTD SVG 1.1//EN" "http://www.w3.org/Graphics/SVG/1.1/DTD/svg11.dtd"><svg width="100%" height="100%" viewBox="0 0 64 64" version="1.1" xmlns="http://www.w3.org/2000/svg" xmlns:xlink="http://www.w3.org/1999/xlink" xml:space="preserve" xmlns:serif="http://www.serif.com/" style="fill-rule:evenodd;clip-rule:evenodd;stroke-linejoin:round;stroke-miterlimit:2;"><path d="M2,22l3.839,-19.196c0.094,-0.468 0.504,-0.804 0.981,-0.804l50.36,0c0.477,-0 0.887,0.336 0.981,0.804l3.839,19.196l0,39c0,0.265 -0.105,0.52 -0.293,0.707c-0.187,0.188 -0.442,0.293 -0.707,0.293l-58,0c-0.265,0 -0.52,-0.105 -0.707,-0.293c-0.188,-0.187 -0.293,-0.442 -0.293,-0.707l0,-39Z" style="fill:url(#_Linear1);"/><path d="M27,42.874l-5,0l9.5,-8.874l9.5,8.874l-5,0l0,4.126l-9,0l0,-4.126Z" style="fill:url(#_Linear2);"/><g><path d="M18.724,52.51c-0,0.605 -0.208,1.108 -0.625,1.511c-0.41,0.396 -1.038,0.594 -1.885,0.594l-1.396,-0l-0,3.031l-0.948,-0l-0,-7.261l2.344,0c0.819,0 1.441,0.198 1.864,0.594c0.431,0.396 0.646,0.906 0.646,1.531Zm-2.51,1.323c0.527,0 0.916,-0.114 1.166,-0.343c0.25,-0.23 0.375,-0.556 0.375,-0.98c0,-0.895 -0.514,-1.343 -1.541,-1.343l-1.396,-0l-0,2.666l1.396,0Z" style="fill:#bd8742;fill-rule:nonzero;"/><path d="M24.193,56.031l-3.167,0l-0.583,1.615l-1,-0l2.625,-7.219l1.093,0l2.615,7.219l-1,-0l-0.583,-1.615Zm-0.271,-0.771l-1.313,-3.666l-1.312,3.666l2.625,0Z" style="fill:#bd8742;fill-rule:nonzero;"/><path d="M30.745,57.646l-1.729,-2.969l-1.146,0l-0,2.969l-0.948,-0l-0,-7.261l2.344,0c0.548,0 1.01,0.094 1.385,0.282c0.382,0.187 0.667,0.441 0.854,0.76c0.188,0.32 0.281,0.684 0.281,1.094c0,0.5 -0.145,0.941 -0.437,1.323c-0.285,0.382 -0.715,0.635 -1.292,0.76l1.823,3.042l-1.135,-0Zm-2.875,-3.729l1.396,-0c0.514,-0 0.899,-0.125 1.156,-0.375c0.257,-0.257 0.385,-0.598 0.385,-1.021c0,-0.431 -0.128,-0.764 -0.385,-1c-0.25,-0.236 -0.636,-0.354 -1.156,-0.354l-1.396,-0l-0,2.75Z" style="fill:#bd8742;fill-rule:nonzero;"/><path d="M32.901,54.01c0,-0.708 0.16,-1.343 0.479,-1.906c0.32,-0.569 0.754,-1.014 1.302,-1.333c0.556,-0.32 1.17,-0.479 1.844,-0.479c0.792,-0 1.483,0.191 2.073,0.573c0.59,0.382 1.021,0.923 1.292,1.625l-1.136,-0c-0.201,-0.438 -0.493,-0.775 -0.875,-1.011c-0.375,-0.236 -0.826,-0.354 -1.354,-0.354c-0.507,0 -0.962,0.118 -1.365,0.354c-0.402,0.236 -0.718,0.573 -0.947,1.011c-0.23,0.43 -0.344,0.937 -0.344,1.52c-0,0.577 0.114,1.084 0.344,1.521c0.229,0.431 0.545,0.764 0.947,1c0.403,0.236 0.858,0.354 1.365,0.354c0.528,0 0.979,-0.114 1.354,-0.343c0.382,-0.236 0.674,-0.573 0.875,-1.011l1.136,0c-0.271,0.695 -0.702,1.233 -1.292,1.615c-0.59,0.375 -1.281,0.562 -2.073,0.562c-0.674,0 -1.288,-0.156 -1.844,-0.468c-0.548,-0.32 -0.982,-0.761 -1.302,-1.323c-0.319,-0.563 -0.479,-1.198 -0.479,-1.907Z" style="fill:#bd8742;fill-rule:nonzero;"/><path d="M42.245,51.156l-0,2.427l2.646,0l-0,0.782l-2.646,-0l-0,2.5l2.958,-0l0,0.781l-3.906,-0l-0,-7.271l3.906,0l0,0.781l-2.958,0Z" style="fill:#bd8742;fill-rule:nonzero;"/><path d="M47.589,56.875l2.541,0l0,0.771l-3.489,-0l-0,-7.261l0.948,0l-0,6.49Z" style="fill:#bd8742;fill-rule:nonzero;"/></g><path d="M26,22l2,-20l7.482,-0l1.518,20l0,15l-5.5,-5l-5.5,5l0,-15Z" style="fill:url(#_Linear3);"/><defs><linearGradient id="_Linear1" x1="0" y1="0" x2="1" y2="0" gradientUnits="userSpaceOnUse" gradientTransform="matrix(3.55148e-15,-58,58,3.55148e-15,31.5,60)"><stop offset="0" style="stop-color:#9f6d2d;stop-opacity:1"/><stop offset="0.65" style="stop-color:#bf8c4a;stop-opacity:1"/><stop offset="0.66" style="stop-color:#c49557;stop-opacity:1"/><stop offset="1" style="stop-color:#ca9f68;stop-opacity:1"/></linearGradient><linearGradient id="_Linear2" x1="0" y1="0" x2="1" y2="0" gradientUnits="userSpaceOnUse" gradientTransform="matrix(7.9602e-16,13,-19,1.16341e-15,31.5,34)"><stop offset="0" style="stop-color:#75b34c;stop-opacity:1"/><stop offset="0.57" style="stop-color:#659a42;stop-opacity:1"/><stop offset="1" style="stop-color:#5e8f3d;stop-opacity:1"/></linearGradient><linearGradient id="_Linear3" x1="0" y1="0" x2="1" y2="0" gradientUnits="userSpaceOnUse" gradientTransform="matrix(1.61715e-15,26.4101,-26.4101,1.61715e-15,31.5,2.58993)"><stop offset="0" style="stop-color:#adadad;stop-opacity:1"/><stop offset="0.71" style="stop-color:#9f9f9f;stop-opacity:1"/><stop offset="0.75" style="stop-color:#969696;stop-opacity:1"/><stop offset="1" style="stop-color:#858585;stop-opacity:1"/></linearGradient></defs></svg>