<?xml version="1.0" encoding="UTF-8" standalone="no"?><!DOCTYPE svg PUBLIC "-//W3C//DTD SVG 1.1//EN" "http://www.w3.org/Graphics/SVG/1.1/DTD/svg11.dtd"><svg width="100%" height="100%" viewBox="0 0 64 64" version="1.1" xmlns="http://www.w3.org/2000/svg" xmlns:xlink="http://www.w3.org/1999/xlink" xml:space="preserve" xmlns:serif="http://www.serif.com/" style="fill-rule:evenodd;clip-rule:evenodd;stroke-linecap:round;stroke-linejoin:round;stroke-miterlimit:1.5;"><g><g><path d="M32,16.558l-0,19.93l20.7,-10.02l-20.7,-9.91" style="fill:#c38c38;stroke:#584424;stroke-width:0.83px;"/><path d="M11.299,26.571l20.701,-10.013l-0.008,19.93l-20.693,-9.917Z" style="fill:#805c25;stroke:#584424;stroke-width:0.83px;"/><g><path d="M20,11.35c-0,-0.381 0.217,-0.729 0.559,-0.897c2.053,-1.009 9.155,-4.498 11,-5.404c0.278,-0.137 0.604,-0.137 0.882,-0c1.845,0.906 8.946,4.395 11,5.404c0.342,0.168 0.559,0.516 0.559,0.897c-0,2.317 -0,10.418 -0,12.735c-0,0.381 -0.217,0.729 -0.559,0.897c-2.054,1.009 -9.155,4.497 -11,5.404c-0.278,0.136 -0.604,0.136 -0.882,-0c-1.845,-0.907 -8.947,-4.395 -11,-5.404c-0.342,-0.168 -0.559,-0.516 -0.559,-0.897c-0,-2.317 -0,-10.418 -0,-12.735Z" style="fill:#f4f4f4;"/><path d="M20,12.333c-0,-0.345 0.178,-0.666 0.471,-0.848c0.293,-0.183 0.66,-0.201 0.97,-0.049c2.065,1.015 5.887,2.892 8.322,4.088c1.369,0.672 2.237,2.065 2.237,3.59c-0,2.859 -0,7.463 -0,9.883c-0,0.345 -0.178,0.666 -0.472,0.849c-0.293,0.182 -0.659,0.201 -0.969,0.048c-2.658,-1.305 -8.222,-4.038 -10,-4.912c-0.342,-0.168 -0.559,-0.516 -0.559,-0.897c-0,-2.056 -0,-8.672 -0,-11.752Z" style="fill:#ebebeb;"/><path d="M44,12.333c-0,-0.345 -0.178,-0.666 -0.472,-0.848c-0.293,-0.183 -0.659,-0.201 -0.969,-0.049c-2.066,1.015 -5.888,2.892 -8.323,4.088c-1.369,0.672 -2.236,2.065 -2.236,3.59c-0,2.859 -0,7.463 -0,9.883c-0,0.345 0.178,0.666 0.471,0.849c0.293,0.182 0.66,0.201 0.97,0.048c2.657,-1.305 8.221,-4.038 10,-4.912c0.342,-0.168 0.559,-0.516 0.559,-0.897c-0,-2.056 -0,-8.672 -0,-11.752Z" style="fill:#c7c7c7;"/><path d="M21.827,11.624c-0.342,-0.168 -0.559,-0.516 -0.559,-0.897c-0,-0.382 0.217,-0.73 0.559,-0.898c2.845,-1.397 8.171,-4.013 9.732,-4.78c0.278,-0.137 0.604,-0.137 0.882,-0c1.561,0.767 6.886,3.383 9.731,4.78c0.343,0.168 0.56,0.516 0.56,0.898c-0,0.381 -0.217,0.729 -0.56,0.897c-2.281,1.121 -6.157,3.025 -8.409,4.131c-1.112,0.546 -2.415,0.546 -3.527,-0c-2.251,-1.106 -6.127,-3.01 -8.409,-4.131Z" style="fill:#fff;"/><path d="M24.014,20.042l0,-1.316c0,-0.08 0.042,-0.155 0.11,-0.198c0.069,-0.043 0.154,-0.047 0.226,-0.011l0.837,0.411c-0.011,-0.132 -0.037,-0.373 0.009,-0.466c0.139,-0.28 0.563,-0.074 0.64,0.299c0.033,0.161 0.008,0.366 0.001,0.486l1.334,0.655c0.08,0.039 0.13,0.121 0.13,0.209c0,0 0,0.858 0,1.171c-0,0.045 -0.03,0.083 -0.072,0.095c-0.043,0.013 -0.089,-0.005 -0.112,-0.042c-0.035,-0.07 -0.13,-0.106 -0.201,-0.089c-0.355,0.086 -0.358,0.643 -0,0.839c0.2,0.11 0.385,0.163 0.385,0.163l0,1.173c0,0.08 -0.041,0.155 -0.11,0.198c-0.068,0.042 -0.154,0.047 -0.226,0.011c0,0 -0.506,-0.249 -0.837,-0.411c-0.161,-0.079 -0.267,-0.239 -0.278,-0.417c0,-0.1 -0.004,-0.2 -0.014,-0.251c-0.077,-0.373 -0.501,-0.578 -0.64,-0.299c-0.02,0.042 -0.027,0.208 -0.029,0.34c-0.001,0.034 -0.02,0.064 -0.049,0.081c-0.028,0.016 -0.063,0.018 -0.093,0.003c-0.282,-0.137 -0.88,-0.431 -0.88,-0.431c-0.08,-0.039 -0.131,-0.121 -0.131,-0.21l0,-1.13c-0.136,-0.062 -0.17,-0.052 -0.331,-0.14c-0.358,-0.196 -0.355,-0.753 0,-0.839c0.115,-0.028 0.186,0.029 0.331,0.116Z" style="fill:#c7c7c7;"/><path d="M39.901,20.042l0,-1.316c0,-0.08 -0.041,-0.155 -0.11,-0.198c-0.068,-0.043 -0.154,-0.047 -0.226,-0.011l-0.837,0.411c0.012,-0.132 0.037,-0.373 -0.008,-0.466c-0.139,-0.28 -0.563,-0.074 -0.64,0.299c-0.033,0.161 -0.009,0.366 -0.001,0.486l-1.334,0.655c-0.08,0.039 -0.131,0.121 -0.131,0.209c0,0 0,0.761 0,1.111c0.001,0.03 0.014,0.058 0.037,0.077c0.022,0.019 0.052,0.026 0.081,0.021c0.082,-0.047 0.19,-0.093 0.268,-0.074c0.355,0.086 0.358,0.643 -0,0.839c-0.201,0.11 -0.386,0.163 -0.386,0.163l0,1.173c0,0.08 0.042,0.155 0.11,0.198c0.069,0.042 0.154,0.047 0.227,0.011c-0,0 0.506,-0.249 0.836,-0.411c0.161,-0.079 0.267,-0.239 0.278,-0.417c0.001,-0.1 0.004,-0.2 0.015,-0.251c0.077,-0.373 0.501,-0.578 0.64,-0.299c0.02,0.042 0.027,0.208 0.028,0.34c0.002,0.034 0.02,0.064 0.049,0.081c0.029,0.016 0.064,0.018 0.094,0.003c0.282,-0.137 0.88,-0.431 0.88,-0.431c0.08,-0.039 0.13,-0.121 0.13,-0.21l0,-1.13c0.137,-0.062 0.171,-0.052 0.332,-0.14c0.357,-0.196 0.354,-0.753 -0,-0.839c-0.116,-0.028 -0.186,0.029 -0.332,0.116Z" style="fill:#a3a3a3;"/></g><g><g><path d="M52.7,26.5l-0,23.492c-0,0.381 -0.217,0.729 -0.559,0.898c-2.987,1.467 -17.026,8.362 -19.701,9.676c-0.278,0.137 -0.603,0.137 -0.881,0c-2.675,-1.314 -16.714,-8.209 -19.701,-9.676c-0.342,-0.169 -0.559,-0.517 -0.559,-0.898c0,-3.781 0,-23.495 0,-23.495c0,0 15.908,7.656 19.833,9.545c0.548,0.263 1.187,0.263 1.735,-0c3.908,-1.881 19.699,-9.48 19.832,-9.544c0,-0.001 0,-0.001 0.001,-0.001c-0,0 -0,0.003 -0,0.003Z" style="fill:#febe5d;stroke:#584424;stroke-width:1px;"/><path d="M52.7,26.497l-0,23.495c-0,0.381 -0.217,0.729 -0.559,0.898c-2.943,1.445 -16.61,8.158 -19.574,9.614c-0.122,0.06 -0.266,0.053 -0.382,-0.019c-0.115,-0.072 -0.185,-0.199 -0.185,-0.335c-0,-3.821 -0,-23.662 -0,-23.662l20.7,-9.991l-0,0Z" style="fill:#c38c38;stroke:#584424;stroke-width:1px;"/></g><path d="M18.448,48.671l-0,4.22l-6.082,-2.973l0,-4.221l6.082,2.974Z" style="fill:#c38c38;"/></g><path d="M32,36.458l2.394,8.851l20.335,-10.47l-1.812,-8.371l-20.917,9.99Z" style="fill:#c38c38;stroke:#584424;stroke-width:0.83px;"/><path d="M32,36.458l-2.394,8.851l-20.336,-10.47l1.813,-8.371l20.917,9.99Z" style="fill:#febe5d;stroke:#584424;stroke-width:0.83px;"/></g><path d="M52.247,26.397l-20.255,9.699l-20.239,-9.699l-5.629,-23.18l51.752,0l-5.629,23.18Z" style="fill:url(#_Linear1);"/><g><g><path d="M33.952,56.372l-0,1.807l-0.952,0.465l-0,-5.35l1.572,-0.727c0.059,-0.027 0.449,-0.207 0.793,-0.141c0.052,0.009 0.345,0.061 0.532,0.387c0.19,0.321 0.19,0.773 0.19,0.842c-0,0.119 -0,0.77 -0.409,1.429c-0.063,0.102 -0.407,0.656 -1.122,0.998l-0.604,0.29Zm-0,-0.991l0.62,-0.294c0.275,-0.131 0.395,-0.344 0.417,-0.384c0.025,-0.042 0.145,-0.254 0.145,-0.592c0,-0.044 0,-0.371 -0.147,-0.524c-0.112,-0.115 -0.269,-0.098 -0.404,-0.037l-0.631,0.295l-0,1.536Z" style="fill:#febe5d;fill-rule:nonzero;"/><path d="M38.301,55.081l-1.27,0.614l-0.223,1.089l-0.999,0.488c0.474,-1.978 0.947,-3.956 1.421,-5.934l0.871,-0.403c0.47,1.51 0.94,3.019 1.41,4.529l-0.986,0.482l-0.224,-0.865Zm-1.047,-0.469l0.826,-0.395l-0.414,-1.615l-0.412,2.01Z" style="fill:#febe5d;fill-rule:nonzero;"/><path d="M41.19,52.831l-0.491,0.235l-0,1.818l-0.911,0.445l-0,-5.173l1.484,-0.687c0.076,-0.035 0.666,-0.308 1.041,-0.078c0.373,0.23 0.373,0.882 0.373,0.965c0,0.532 -0.131,0.885 -0.158,0.957c-0.026,0.071 -0.156,0.425 -0.492,0.803l0.778,1.682l-0,0.053l-0.963,0.47l-0.661,-1.49Zm-0.491,-0.724l0.573,-0.272c0.258,-0.122 0.367,-0.328 0.387,-0.366c0.022,-0.042 0.131,-0.248 0.131,-0.579c-0,-0.143 -0.015,-0.345 -0.131,-0.456c-0.108,-0.105 -0.266,-0.066 -0.387,-0.009l-0.573,0.268l-0,1.414Z" style="fill:#febe5d;fill-rule:nonzero;"/><path d="M46.194,50.505c-0.018,0.531 -0.175,0.946 -0.205,1.024c-0.187,0.49 -0.473,0.816 -0.527,0.877c-0.339,0.387 -0.706,0.566 -0.777,0.6c-0.103,0.051 -0.715,0.366 -1.143,-0.093c-0.42,-0.449 -0.42,-1.505 -0.42,-1.641l0,-0.251c0,-0.748 0.157,-1.287 0.189,-1.395c0.19,-0.651 0.485,-1.039 0.545,-1.119c0.355,-0.47 0.742,-0.649 0.819,-0.684c0.078,-0.036 0.666,-0.308 1.069,-0.012c0.402,0.292 0.451,1.013 0.457,1.108l-0.875,0.413c-0.001,-0.048 -0.01,-0.455 -0.168,-0.581c-0.139,-0.112 -0.342,-0.041 -0.483,0.025c-0.054,0.025 -0.33,0.154 -0.484,0.567c-0.155,0.413 -0.161,1.07 -0.162,1.164l-0,0.358c-0,0.088 -0,0.811 0.146,1.087c0.149,0.276 0.473,0.119 0.51,0.101c0.305,-0.147 0.44,-0.379 0.465,-0.422c0.161,-0.274 0.17,-0.649 0.171,-0.708l0.873,-0.418Z" style="fill:#febe5d;fill-rule:nonzero;"/><path d="M48.834,48.818l-1.357,0.648l-0,1.185l1.602,-0.774l-0,0.914c-0.824,0.403 -1.648,0.805 -2.472,1.208l0,-4.997c0.826,-0.382 1.651,-0.763 2.477,-1.145l-0,0.918l-1.607,0.751l-0,1.048l1.357,-0.641l0,0.885Z" style="fill:#febe5d;fill-rule:nonzero;"/><path d="M50.28,49.296l1.472,-0.712l-0,0.902c-0.775,0.378 -1.55,0.757 -2.324,1.135l-0,-4.923l0.852,-0.394l0,3.992Z" style="fill:#febe5d;fill-rule:nonzero;"/></g></g></g><defs><linearGradient id="_Linear1" x1="0" y1="0" x2="1" y2="0" gradientUnits="userSpaceOnUse" gradientTransform="matrix(0.00794802,-29.042,29.042,0.00794802,31.9921,36.0962)"><stop offset="0" style="stop-color:#d3c07d;stop-opacity:1"/><stop offset="0.51" style="stop-color:#e8df62;stop-opacity:0.25"/><stop offset="1" style="stop-color:#efea59;stop-opacity:0"/></linearGradient></defs></svg>